<?xml version="1.0" standalone="no"?>
<!DOCTYPE svg PUBLIC "-//W3C//DTD SVG 20010904//EN"
 "http://www.w3.org/TR/2001/REC-SVG-20010904/DTD/svg10.dtd">
<svg version="1.0" xmlns="http://www.w3.org/2000/svg"
 width="512.000000pt" height="495.000000pt" viewBox="0 0 512.000000 495.000000"
 preserveAspectRatio="xMidYMid meet">

<g transform="translate(0.000000,495.000000) scale(0.100000,-0.100000)"
fill="#000000" stroke="none">
<path d="M0 2475 l0 -2475 1846 0 1846 0 -4 80 c-2 49 1 80 7 80 6 0 4 4 -4 9
-11 7 -10 11 5 20 17 10 16 10 -7 5 -46 -10 -88 43 -58 73 7 7 5 21 -10 48
-11 20 -17 43 -14 51 3 8 0 21 -7 29 -7 8 -10 24 -7 35 3 10 2 19 -2 18 -20
-2 -32 3 -30 15 1 6 -1 34 -6 60 -6 38 -13 51 -32 60 -21 9 -23 15 -18 49 4
23 3 38 -3 38 -6 0 -8 8 -6 17 2 10 -2 29 -9 43 -11 22 -10 27 9 45 21 19 43
102 24 90 -5 -3 -11 -2 -14 3 -3 5 -21 8 -41 7 -35 -1 -35 -1 -15 19 15 16 22
18 32 8 18 -18 35 -15 41 8 4 17 0 20 -32 20 -20 0 -49 5 -63 12 -23 11 -25
16 -20 58 3 25 9 47 13 48 14 6 10 32 -9 60 -32 46 -34 52 -18 46 9 -3 16 -10
16 -15 0 -5 9 -9 20 -9 11 0 20 3 20 8 -1 18 -39 115 -39 100 -1 -9 -6 -20
-13 -24 -8 -5 -9 -2 -5 9 8 21 7 21 -43 1 -38 -15 -43 -15 -93 4 -28 11 -60
23 -69 26 -28 9 -22 36 7 36 14 0 25 -6 25 -13 0 -8 19 -21 41 -30 40 -16 44
-15 91 5 l50 21 -5 44 c-3 28 -1 40 6 36 6 -3 7 -1 3 6 -10 16 12 41 36 41 10
0 16 5 13 10 -4 6 -10 8 -15 5 -4 -3 -10 0 -12 6 -2 7 -12 7 -31 0 -19 -8 -27
-18 -27 -35 0 -43 -17 -70 -54 -90 -27 -14 -40 -16 -48 -8 -18 18 -1 45 25 38
33 -8 44 4 52 57 5 34 13 51 29 59 29 15 36 29 30 54 -4 17 0 24 17 29 l24 8
-23 8 c-12 5 -22 14 -22 21 0 9 3 9 10 -2 8 -12 10 -10 10 9 0 33 -20 14 -45
-42 -20 -46 -39 -57 -101 -57 -16 0 -29 -12 -46 -42 -20 -36 -29 -43 -58 -46
-19 -1 -45 -8 -57 -14 -42 -21 -72 13 -38 42 12 10 19 10 27 2 7 -7 29 -12 49
-12 34 0 40 4 61 42 13 24 30 44 38 45 81 10 86 13 100 51 8 20 15 46 15 57 1
11 5 29 8 40 3 11 0 28 -8 39 -12 16 -22 17 -85 11 -62 -6 -73 -10 -88 -34 -9
-14 -23 -32 -30 -40 -7 -8 -20 -24 -28 -36 -12 -19 -28 -24 -87 -30 -40 -4
-85 -13 -102 -21 -27 -13 -31 -13 -42 2 -18 24 2 46 33 38 14 -4 58 -3 98 1
71 6 75 8 99 43 59 86 66 91 152 103 44 6 86 12 93 12 7 0 11 6 8 14 -3 7 -3
20 0 28 5 12 10 13 20 4 17 -14 18 2 2 20 -8 8 -8 11 -2 8 7 -4 12 3 12 17 -1
18 -5 23 -17 19 -15 -6 -15 -5 0 13 18 23 14 54 -8 54 -11 0 -13 4 -6 12 15
18 12 48 -4 48 -7 0 -13 8 -12 18 0 10 3 12 6 5 6 -16 33 -17 33 -3 0 6 -6 13
-14 16 -16 6 -29 44 -14 44 5 0 6 5 3 10 -4 6 -10 8 -15 5 -10 -6 -35 34 -26
43 3 3 6 -1 6 -8 0 -7 2 -11 5 -8 10 9 -7 38 -18 31 -5 -3 -7 -1 -3 5 7 12
-80 162 -95 162 -5 0 -8 3 -6 8 5 17 -36 91 -54 95 -27 7 -35 35 -15 55 22 22
49 5 56 -34 5 -32 51 -114 63 -114 4 0 7 10 7 23 0 16 -3 18 -9 9 -7 -11 -10
-10 -15 3 -8 23 -8 25 5 22 24 -5 18 22 -11 51 -29 30 -40 49 -20 37 6 -4 10
6 9 22 0 15 -3 22 -6 16 -6 -17 -24 -17 -20 -1 1 7 -14 20 -33 30 -42 21 -21
23 35 3 22 -8 42 -15 44 -15 2 0 -7 11 -20 24 -24 25 -53 26 -96 4 -12 -6 -29
-8 -37 -5 -18 7 -22 42 -5 52 17 11 59 13 52 2 -3 -5 0 -8 8 -5 9 3 14 20 14
51 0 25 -3 43 -7 41 -5 -3 -8 0 -8 6 0 6 -4 8 -10 5 -6 -3 -10 1 -10 9 0 20
20 31 30 16 4 -7 10 -8 12 -4 3 5 -3 17 -14 27 -10 9 -18 14 -18 10 0 -5 -5
-1 -10 7 -8 13 -10 12 -10 -2 0 -10 4 -18 9 -18 5 0 -16 -26 -48 -58 l-57 -57
-84 2 c-79 3 -87 5 -107 30 -39 48 -76 143 -66 169 3 8 13 13 22 12 12 -3 15
-14 13 -48 -2 -35 3 -52 30 -92 l33 -49 79 3 c66 3 81 6 90 22 6 11 21 30 34
42 17 16 21 30 18 55 -3 19 -5 39 -5 44 -1 6 -5 4 -10 -4 -5 -8 -8 -27 -6 -42
5 -37 -41 -79 -96 -89 -39 -7 -45 -6 -68 20 -13 16 -32 49 -42 74 -14 38 -15
47 -3 57 21 17 33 2 32 -42 -1 -53 23 -79 73 -79 43 0 79 35 79 76 0 28 -42
43 -65 24 -12 -10 -18 -10 -30 0 -8 7 -15 19 -15 27 0 19 27 28 44 14 7 -6 27
-11 42 -10 16 1 36 -1 45 -5 9 -4 21 -1 28 7 9 12 8 16 -6 21 -15 6 -15 8 -3
17 13 8 13 10 0 19 -8 5 -16 14 -16 20 -1 5 -2 15 -3 21 0 5 -5 8 -10 4 -6 -3
-20 8 -33 25 -12 17 -28 28 -35 25 -8 -2 -16 2 -20 11 -3 8 -12 13 -20 10 -8
-3 -12 -2 -9 3 3 4 -44 31 -105 59 -105 49 -113 51 -202 53 -50 1 -109 -2
-129 -6 -37 -7 -38 -7 -38 20 0 25 3 27 28 21 15 -4 81 -11 147 -15 116 -8
124 -10 233 -60 104 -48 114 -51 134 -37 l21 15 -26 6 c-14 4 -27 15 -30 26
-3 10 -10 19 -17 19 -6 0 -8 -6 -5 -12 4 -7 0 -6 -7 4 -11 12 -18 14 -32 6
-13 -7 -17 -7 -12 0 3 6 2 13 -4 17 -16 10 -12 42 6 49 8 3 12 12 9 18 -4 7 1
4 9 -6 9 -11 16 -16 16 -10 -1 33 -50 47 -237 69 -70 8 -149 18 -174 21 -52 7
-93 -9 -133 -53 -19 -20 -29 -24 -37 -16 -18 18 -6 46 21 48 14 2 43 13 63 25
37 22 41 22 150 11 62 -7 141 -16 176 -21 65 -9 86 -6 76 11 -4 5 -1 9 4 9 6
0 11 -7 11 -15 0 -8 5 -15 11 -15 5 0 8 4 5 9 -4 5 0 11 6 14 9 3 7 10 -7 22
-11 9 -14 14 -7 10 6 -3 12 -3 12 2 0 4 -19 9 -43 10 -23 1 -100 9 -172 18
-71 9 -157 19 -189 22 l-60 6 -37 -43 c-21 -24 -42 -40 -48 -36 -17 11 -13 36
7 43 9 3 32 17 50 31 34 24 35 24 140 14 59 -6 145 -14 192 -17 47 -4 93 -9
103 -11 9 -3 17 -1 17 5 0 6 -15 11 -32 12 -31 1 -32 1 -8 9 23 7 21 8 -17 15
-24 4 -41 11 -38 15 6 10 -45 18 -224 32 -120 9 -156 9 -159 0 -2 -7 -9 -12
-16 -12 -7 0 -23 -14 -35 -31 l-24 -32 -81 6 c-96 8 -131 -7 -168 -73 -22 -39
-47 -49 -56 -23 -2 7 4 16 14 20 10 4 31 22 48 41 41 46 67 55 162 53 88 -2
108 8 103 51 -2 13 0 29 4 36 5 6 4 12 -2 12 -5 0 -12 -4 -16 -10 -8 -13 -35
-1 -35 15 0 19 19 29 33 17 7 -5 66 -10 132 -10 97 0 123 3 138 15 13 12 20
14 28 6 6 -6 18 -9 25 -6 8 3 14 0 14 -7 0 -6 -4 -9 -9 -6 -5 3 -11 -4 -14
-15 -5 -19 -10 -20 -49 -13 -59 10 -208 13 -208 3 0 -4 53 -10 117 -13 65 -4
144 -8 175 -9 61 -3 75 6 53 37 -8 10 -11 24 -8 32 3 8 0 14 -6 14 -6 0 -11
-4 -11 -10 0 -21 -20 -9 -26 15 -3 14 -10 25 -16 25 -5 0 -6 -4 -3 -10 3 -5
-1 -10 -9 -10 -8 0 -16 10 -18 22 -2 12 -9 23 -16 26 -8 2 -10 -2 -5 -15 6
-16 5 -16 -10 -4 -10 8 -15 22 -12 35 3 11 1 28 -4 36 -15 23 -24 4 -10 -22 6
-12 8 -20 4 -16 -5 4 -14 3 -22 -3 -10 -9 -13 -6 -13 15 0 14 -4 26 -10 26 -5
0 -10 -7 -10 -15 0 -21 -13 -19 -28 5 -7 11 -18 17 -27 14 -8 -4 -15 -2 -15 4
0 5 -7 12 -14 15 -10 4 -13 1 -9 -9 3 -10 0 -12 -10 -8 -9 3 -18 12 -21 21 -4
9 -13 13 -21 9 -9 -3 -18 0 -21 8 -3 7 -10 13 -17 14 -60 8 -61 7 -68 -23 l-7
-30 -1 28 c-1 27 -14 36 -26 17 -4 -6 -12 -10 -18 -9 -31 4 -58 -2 -52 -11 3
-5 0 -7 -8 -4 -8 3 -31 -2 -51 -10 -21 -9 -38 -11 -41 -5 -5 8 33 29 53 29 3
0 25 7 47 16 27 10 41 22 42 35 2 25 -12 24 -31 -3 -9 -12 -17 -17 -17 -10 -3
26 -4 31 -11 38 -5 4 -8 0 -8 -9 0 -25 -18 -30 -52 -13 -17 9 -39 16 -49 16
-10 0 -21 5 -24 10 -14 22 -27 9 -21 -20 4 -22 2 -30 -8 -30 -18 0 -27 25 -14
38 14 14 1 32 -23 32 -11 0 -22 7 -25 15 -4 10 -13 13 -24 10 -11 -3 -20 0
-24 10 -4 11 1 15 19 15 31 0 38 12 20 36 -13 17 -14 17 -15 2 0 -9 -6 -20
-12 -24 -7 -4 -10 -4 -6 1 4 4 3 14 -3 22 -10 11 -14 10 -25 -4 -12 -16 -13
-16 -14 10 0 20 5 27 20 27 21 0 26 16 11 38 -6 10 -10 8 -14 -10 -6 -22 -7
-22 -21 -3 -13 16 -17 17 -25 6 -10 -16 -35 -5 -25 11 10 16 5 107 -6 128 -7
13 -6 20 2 22 8 3 8 9 0 24 -10 18 -11 18 -17 1 -4 -9 -5 -28 -1 -41 7 -27 0
-37 -20 -29 -10 4 -11 10 -3 25 6 11 8 26 5 34 -8 22 4 44 25 44 14 0 19 6 18
23 -6 62 1 88 26 99 14 6 25 17 25 25 0 7 5 13 11 13 6 0 29 14 51 31 64 51
265 145 348 162 188 41 408 34 517 -14 24 -11 45 -19 48 -19 16 0 209 -102
265 -140 94 -63 243 -218 334 -345 79 -111 186 -312 246 -460 29 -73 55 -150
105 -305 23 -72 59 -214 81 -318 9 -47 23 -86 31 -89 8 -3 13 -23 13 -56 0
-96 15 -35 21 86 6 116 7 114 7 -58 0 -236 0 -253 11 -237 9 16 21 -52 22
-132 0 -28 8 -112 18 -186 l17 -135 7 64 c4 35 7 493 7 1018 l0 953 -32 20
c-18 11 -68 35 -110 52 -43 18 -78 39 -78 45 0 15 63 -8 169 -61 l69 -35 6
-1478 c3 -870 9 -1511 15 -1558 18 -148 25 -494 12 -616 -7 -63 -14 -130 -16
-149 -2 -19 -7 -101 -11 -183 l-7 -147 562 0 561 0 0 2475 0 2475 -1340 0
-1340 0 0 -35 c0 -28 -4 -35 -20 -35 -16 0 -20 7 -20 35 0 44 -18 46 -22 3 -2
-25 -8 -34 -25 -36 -20 -3 -23 1 -23 32 0 20 -4 36 -10 36 -5 0 -10 -16 -10
-36 0 -31 -3 -35 -22 -32 -18 2 -24 11 -26 36 -3 31 -5 32 -48 32 -44 0 -44 0
-44 -35 0 -28 -4 -35 -20 -35 -16 0 -20 7 -20 35 0 32 -19 52 -21 23 -1 -7 -2
-22 -3 -33 -1 -17 -9 -21 -48 -23 l-48 -3 0 35 c0 25 -4 36 -15 36 -10 0 -15
-11 -15 -35 0 -28 -4 -35 -20 -35 -16 0 -20 7 -20 35 0 19 -4 35 -10 35 -5 0
-10 -16 -10 -35 0 -31 -3 -35 -25 -35 -22 0 -25 5 -26 38 l-2 37 -6 -35 c-4
-26 -12 -36 -28 -38 -20 -3 -23 1 -23 32 0 20 -4 36 -10 36 -5 0 -10 -16 -10
-35 0 -28 -4 -35 -20 -35 -16 0 -20 7 -20 35 0 19 -4 35 -10 35 -5 0 -10 -16
-10 -35 0 -31 -3 -35 -25 -35 -22 0 -25 4 -25 35 0 19 -4 35 -10 35 -5 0 -10
-16 -10 -36 0 -31 -3 -35 -22 -32 -13 2 -24 10 -24 18 -1 8 -2 23 -3 33 -2 33
-21 17 -21 -18 0 -28 -4 -35 -20 -35 -16 0 -20 7 -20 35 0 24 -5 35 -15 35
-10 0 -15 -11 -15 -35 0 -28 -4 -35 -20 -35 -16 0 -20 7 -20 35 0 19 -4 35
-10 35 -5 0 -10 -16 -10 -35 0 -31 -3 -35 -25 -35 -22 0 -25 4 -25 35 0 19 -4
35 -10 35 -5 0 -10 -16 -10 -36 0 -31 -3 -35 -22 -32 -19 2 -23 9 -22 36 1 22
-3 32 -13 32 -10 0 -14 -9 -11 -32 2 -28 -1 -34 -19 -36 -20 -3 -23 1 -23 32
0 20 -4 36 -10 36 -5 0 -10 -16 -10 -35 0 -31 -3 -35 -25 -35 -22 0 -25 4 -25
35 0 19 -4 35 -10 35 -5 0 -10 -16 -10 -35 0 -31 -3 -35 -25 -35 -22 0 -25 4
-25 35 0 19 -4 35 -10 35 -5 0 -10 -16 -10 -35 0 -28 -4 -35 -20 -35 -16 0
-20 7 -20 35 l0 35 -540 0 -540 0 0 -2475z m2240 2393 c0 -4 -9 -8 -20 -8 -11
0 -20 4 -20 8 0 4 9 8 20 8 11 0 20 -4 20 -8z m-737 -35 c-67 -2 -179 -2 -250
0 -70 1 -15 3 122 3 138 0 195 -2 128 -3z m215 0 c-15 -2 -42 -2 -60 0 -18 2
-6 4 27 4 33 0 48 -2 33 -4z m65 0 c-7 -2 -19 -2 -25 0 -7 3 -2 5 12 5 14 0
19 -2 13 -5z m80 0 c-7 -2 -19 -2 -25 0 -7 3 -2 5 12 5 14 0 19 -2 13 -5z m54
1 c-3 -3 -12 -4 -19 -1 -8 3 -5 6 6 6 11 1 17 -2 13 -5z m230 0 c-3 -3 -12 -4
-19 -1 -8 3 -5 6 6 6 11 1 17 -2 13 -5z m80 0 c-3 -3 -12 -4 -19 -1 -8 3 -5 6
6 6 11 1 17 -2 13 -5z m96 -1 c-7 -2 -21 -2 -30 0 -10 3 -4 5 12 5 17 0 24 -2
18 -5z m110 0 c-13 -2 -33 -2 -45 0 -13 2 -3 4 22 4 25 0 35 -2 23 -4z m1869
-133 c0 -17 1 -36 2 -42 1 -7 -6 -13 -14 -13 -11 0 -14 9 -12 38 l4 37 -1646
0 c-1639 0 -1646 0 -1646 -20 0 -11 -4 -20 -10 -20 -5 0 -10 11 -10 24 0 18 6
25 23 28 12 2 761 2 1665 0 l1642 -2 2 -30z m-2942 -470 c0 -5 -49 -33 -110
-61 l-110 -52 0 -1882 0 -1882 110 -51 c61 -28 110 -56 110 -62 0 -15 1 -15
-125 44 l-115 55 0 1378 c0 758 -3 1611 -5 1896 l-5 517 87 41 c161 76 163 76
163 59z m377 -62 c-3 -8 -6 -5 -6 6 -1 11 2 17 5 13 3 -3 4 -12 1 -19z m2193
-128 c0 -28 -3 -30 -35 -30 -32 0 -35 2 -35 30 0 28 3 30 35 30 32 0 35 -2 35
-30z m-16 -152 c-3 -4 -15 -8 -27 -8 -15 0 -18 3 -9 8 17 11 43 11 36 0z m-3
-45 c7 -10 9 -15 5 -11 -5 4 -15 3 -22 -3 -14 -12 -29 4 -19 21 9 15 21 12 36
-7z m-2071 -30 c0 -5 -5 -15 -10 -23 -8 -12 -10 -11 -10 8 0 12 5 22 10 22 6
0 10 -3 10 -7z m2075 -32 c-3 -2 -16 -6 -28 -8 -15 -2 -18 0 -9 5 14 9 45 12
37 3z m-2035 -52 c0 -5 -4 -9 -10 -9 -5 0 -10 7 -10 16 0 8 5 12 10 9 6 -3 10
-10 10 -16z m2028 3 c2 -7 -5 -12 -17 -12 -14 0 -19 5 -14 15 6 17 25 15 31
-3z m-1983 -13 c11 -16 1 -19 -13 -3 -7 8 -8 14 -3 14 5 0 13 -5 16 -11z m95
-19 c0 -5 -7 -10 -16 -10 -8 0 -12 5 -9 10 3 6 10 10 16 10 5 0 9 -4 9 -10z
m1875 -20 c-3 -5 -12 -10 -18 -10 -7 0 -6 4 3 10 19 12 23 12 15 0z m-1825 -4
c0 -3 -4 -8 -10 -11 -5 -3 -10 -1 -10 4 0 6 5 11 10 11 6 0 10 -2 10 -4z
m1850 -46 c0 -5 -12 -10 -27 -9 l-28 1 25 8 c14 4 26 8 28 9 1 1 2 -3 2 -9z
m-15 -60 c-27 -12 -43 -12 -25 0 8 5 22 9 30 9 10 0 8 -3 -5 -9z m7 -44 c10 5
10 4 2 -5 -12 -13 -44 -5 -44 11 0 6 6 5 15 -2 8 -6 20 -8 27 -4z m8 -50 c0
-2 -7 -7 -16 -10 -8 -3 -12 -2 -9 4 6 10 25 14 25 6z m-1240 -27 c0 -6 -4 -7
-10 -4 -5 3 -10 11 -10 16 0 6 5 7 10 4 6 -3 10 -11 10 -16z m1213 -16 c-7 -2
-13 -9 -13 -14 0 -14 28 -11 33 4 4 9 6 9 6 -1 1 -17 -28 -27 -41 -14 -12 12
-2 32 15 31 9 0 9 -2 0 -6z m23 -95 c4 -6 3 -8 -4 -4 -6 3 -13 2 -17 -4 -3 -5
-11 -10 -16 -10 -11 0 12 29 23 30 4 0 10 -5 14 -12z m-1 -53 c0 -5 -9 -10
-20 -11 l-20 -1 20 5 c18 5 18 6 -5 13 l-25 8 25 -2 c14 -1 25 -6 25 -12z
m-1670 -30 c0 -16 -6 -19 -25 -17 -93 12 -120 13 -120 4 0 -5 -19 -30 -43 -56
-38 -40 -49 -46 -83 -46 -22 0 -50 -7 -63 -16 -16 -11 -26 -13 -33 -6 -15 15
-1 45 18 38 9 -3 40 -3 71 0 52 7 57 10 96 61 l40 54 49 -6 c34 -5 48 -3 48 5
0 6 10 10 23 8 14 -2 22 -10 22 -23z m1671 -23 c1 -7 0 -8 -3 -2 -7 14 -30 13
-36 -2 -3 -8 -6 -5 -6 5 -1 13 5 18 21 15 12 -2 23 -9 24 -16z m-1311 -44 c22
-5 89 -11 148 -13 116 -3 143 -13 115 -42 -15 -14 -20 -15 -50 0 -38 17 -237
42 -266 32 -23 -7 -37 9 -28 32 4 10 12 13 24 8 9 -4 35 -12 57 -17z m1313 -5
c5 -17 -26 -29 -40 -15 -6 6 -7 15 -3 22 9 14 37 9 43 -7z m-1693 -18 c0 -21
-18 -24 -75 -14 -20 3 -28 -2 -42 -32 -19 -41 -28 -44 -140 -54 -72 -7 -79 -9
-103 -40 -14 -19 -25 -40 -25 -49 0 -23 -20 -30 -37 -13 -16 16 -10 37 11 37
7 0 27 17 44 39 31 38 32 39 119 46 48 4 93 11 100 17 6 5 15 23 18 39 6 26
11 29 45 29 21 0 42 5 45 11 11 17 40 5 40 -16z m1689 -46 c-3 -5 -13 -8 -22
-8 -15 1 -15 2 1 6 15 4 16 7 5 21 -12 15 -11 16 4 3 10 -7 15 -17 12 -22z
m-1609 1 c4 -7 24 -8 51 -4 43 6 44 5 58 -27 8 -19 27 -39 47 -48 25 -12 35
-25 40 -51 10 -47 3 -53 -48 -46 -27 3 -51 1 -63 -6 -16 -10 -23 -10 -35 3 -9
9 -13 23 -9 32 7 18 34 23 50 8 5 -5 26 -13 47 -16 35 -7 37 -6 37 19 0 20 -8
29 -34 40 -25 10 -36 22 -41 46 -7 31 -7 31 -53 24 -26 -3 -52 -11 -58 -15
-26 -21 -60 21 -37 44 10 11 41 8 48 -3z m1610 -45 c0 -5 -10 -11 -22 -13 -16
-2 -23 2 -23 13 0 11 7 15 23 13 12 -2 22 -7 22 -13z m-1192 -17 c2 -7 43 -24
90 -37 84 -23 86 -25 102 -64 16 -40 16 -40 -13 -69 -27 -27 -33 -29 -123 -31
-88 -1 -94 0 -97 19 -4 26 24 40 45 23 7 -7 41 -14 74 -16 53 -4 63 -2 81 17
17 18 18 25 8 49 -9 24 -23 32 -85 50 -40 11 -85 21 -99 21 -28 0 -41 14 -32
35 7 18 42 20 49 3z m-563 -37 c0 -21 -23 -34 -36 -21 -5 4 -53 1 -106 -9
l-97 -16 -65 -62 c-35 -34 -69 -70 -74 -79 -6 -10 -16 -15 -26 -11 -21 8 -20
26 2 34 9 3 49 36 87 73 l70 66 90 13 c50 8 97 17 105 22 26 15 50 10 50 -10z
m125 -56 c0 -17 -7 -20 -45 -21 -50 -2 -239 -31 -267 -41 -10 -3 -72 -46 -138
-94 -66 -48 -137 -94 -157 -102 -25 -11 -38 -22 -38 -35 0 -10 -3 -46 -6 -79
-6 -57 -5 -62 19 -83 29 -25 25 -53 -7 -48 -24 3 -29 25 -27 128 1 90 12 122
42 131 14 3 88 51 165 106 l139 100 128 18 c70 10 136 24 145 32 23 18 47 12
47 -12z m317 -97 l-3 -88 -30 0 c-16 0 -29 5 -29 10 0 6 9 10 20 10 17 0 20 7
20 39 0 37 -1 39 -40 45 -53 8 -100 -23 -100 -66 0 -17 -4 -27 -10 -23 -5 3
-10 19 -10 34 0 21 10 36 36 56 31 23 41 26 80 20 38 -5 44 -4 45 12 1 10 2
23 4 28 1 6 3 14 3 20 1 5 5 5 10 0 4 -6 6 -49 4 -97z m-585 -4 c9 -25 -11
-49 -38 -46 -16 1 -62 -24 -139 -76 -108 -73 -115 -79 -111 -107 8 -68 6 -79
-12 -83 -20 -4 -32 21 -22 46 4 9 8 31 9 47 1 27 14 39 128 115 69 47 129 93
131 103 6 22 46 22 54 1z m207 -30 c8 -20 -12 -47 -29 -40 -7 2 -24 -8 -39
-23 -25 -26 -26 -33 -26 -129 0 -121 1 -122 114 -122 70 0 77 2 92 25 15 22
15 29 4 51 -16 29 -2 51 25 40 38 -14 -7 -124 -56 -137 -13 -4 -49 -7 -80 -8
-47 -1 -58 -4 -62 -21 -4 -17 -11 -18 -76 -13 -51 4 -79 2 -97 -7 -28 -15 -51
-2 -41 23 4 11 20 13 77 9 61 -4 73 -2 85 14 11 16 11 22 0 34 -9 11 -12 44
-10 119 3 99 5 105 33 135 16 17 32 39 35 49 8 22 43 22 51 1z m174 -30 c3
-24 -25 -41 -42 -24 -5 5 -26 10 -47 10 -32 0 -41 -6 -73 -47 -38 -49 -39 -52
-21 -124 5 -19 2 -28 -10 -33 -29 -11 -35 3 -29 62 5 46 15 68 47 110 35 47
43 52 78 52 21 0 41 5 44 11 12 18 50 6 53 -17z m355 -9 c4 -8 2 -17 -2 -20
-5 -3 -7 -24 -3 -48 4 -32 14 -51 43 -77 30 -28 38 -44 43 -83 5 -38 2 -49
-10 -54 -25 -9 -41 14 -26 37 21 34 14 57 -27 89 -34 27 -40 39 -50 94 -6 35
-11 67 -11 70 0 14 38 7 43 -8z m-79 -21 c4 -9 2 -22 -2 -28 -5 -6 -12 -53
-15 -105 l-6 -94 55 7 c45 5 56 3 61 -10 3 -8 -1 -22 -9 -30 -13 -13 -18 -13
-44 1 -51 27 -64 21 -64 -30 0 -42 3 -48 45 -77 44 -31 45 -33 45 -85 0 -53 1
-54 45 -81 45 -27 45 -27 45 -82 0 -30 3 -72 6 -92 5 -30 3 -39 -10 -44 -10
-4 -24 0 -33 9 -14 14 -14 19 1 50 9 19 16 55 16 80 0 40 -3 46 -31 57 -48 20
-59 37 -59 90 0 44 -4 51 -37 79 -36 30 -93 43 -93 21 0 -16 -40 -12 -46 5
-11 28 13 44 46 32 16 -6 31 -9 34 -7 10 11 14 284 4 300 -6 10 -8 25 -5 34 8
21 43 21 51 0z m-618 -19 c4 -8 1 -22 -6 -30 -7 -9 -10 -27 -7 -43 7 -33 -10
-69 -50 -111 -24 -25 -40 -31 -112 -40 -87 -11 -101 -9 -101 15 0 20 27 29 45
14 10 -8 33 -10 75 -5 52 6 64 12 91 43 30 34 31 39 26 98 -2 35 -2 66 1 69
11 10 33 5 38 -10z m453 -79 c16 -15 21 -31 21 -73 0 -54 -1 -56 -70 -131 -38
-42 -70 -84 -70 -94 0 -12 -8 -18 -24 -18 -44 0 -45 43 -2 54 13 3 50 37 84
75 56 63 62 73 62 114 0 25 -6 49 -14 56 -7 6 -48 14 -90 17 -65 6 -79 4 -96
-11 -24 -21 -25 -41 -5 -61 18 -18 9 -44 -15 -44 -26 0 -29 8 -23 61 5 39 10
49 38 65 45 26 172 19 204 -10z m-722 -38 c-3 -8 -6 -5 -6 6 -1 11 2 17 5 13
3 -3 4 -12 1 -19z m103 -18 c6 -11 7 -20 2 -20 -6 0 -12 9 -15 20 -3 11 -3 20
-1 20 2 0 8 -9 14 -20z m562 -36 c-3 -31 -13 -49 -50 -86 -42 -44 -50 -48 -93
-48 -60 0 -102 -30 -93 -66 6 -22 3 -24 -30 -24 l-37 0 3 -62 3 -63 70 0 c53
0 77 -5 100 -20 37 -24 45 -34 38 -52 -10 -25 -44 -14 -55 18 l-11 31 -81 -4
-81 -3 -3 88 -3 87 31 0 c22 0 30 5 30 17 0 9 12 30 27 45 22 24 35 28 78 28
47 0 54 3 93 43 36 36 42 48 37 70 -8 29 1 50 18 44 7 -2 11 -20 9 -43z m698
36 c0 -5 -5 -10 -11 -10 -5 0 -7 5 -4 10 3 6 8 10 11 10 2 0 4 -4 4 -10z
m-133 -94 c-4 -9 -16 -20 -28 -25 -13 -4 -41 -32 -64 -62 -35 -46 -47 -55 -81
-59 -40 -5 -41 -6 -35 -62 1 -14 21 -38 51 -61 28 -21 50 -45 50 -53 0 -8 15
-22 34 -30 41 -20 71 -89 45 -105 -24 -15 -34 -4 -34 35 0 33 -4 39 -32 51
-18 8 -34 19 -34 25 -1 5 -2 14 -3 19 0 5 -25 28 -53 51 -51 40 -53 44 -53 90
0 41 -4 52 -26 69 -15 12 -33 21 -40 21 -17 0 -25 15 -18 34 9 25 43 19 54 -8
14 -38 52 -58 93 -51 25 5 43 19 70 56 21 26 37 60 37 73 0 36 30 50 54 26 11
-10 16 -25 13 -34z m-1105 -28 c3 -7 3 -31 0 -53 -7 -62 -42 -85 -136 -89 -74
-3 -76 -3 -76 20 0 17 6 24 19 24 11 0 23 -4 26 -10 3 -5 27 -10 52 -10 34 0
53 6 70 21 21 21 22 23 6 49 -9 15 -13 35 -10 44 7 19 43 22 49 4z m1152 -14
c7 -17 -10 -45 -24 -41 -11 3 -109 -111 -121 -140 -9 -25 -28 -30 -46 -12 -15
15 -5 39 16 39 18 0 121 121 121 143 0 30 43 39 54 11z m-1378 -103 c-4 -6
-16 -11 -26 -11 -47 0 -67 -21 -90 -93 -13 -40 -29 -89 -36 -109 -7 -21 -9
-40 -4 -43 5 -3 17 22 26 55 14 49 23 64 47 77 17 8 38 25 47 36 19 23 40 16
40 -14 0 -13 -7 -19 -21 -19 -11 0 -33 -7 -49 -16 -24 -15 -33 -36 -70 -158
-43 -145 -72 -195 -104 -183 -9 4 -16 16 -16 27 0 17 5 21 27 18 26 -3 29 1
44 48 10 29 20 67 24 85 7 30 6 32 -8 20 -9 -7 -21 -10 -27 -6 -14 9 -13 42 3
48 7 2 28 51 47 107 26 77 41 107 60 118 14 9 33 24 44 35 16 17 20 17 33 4 9
-8 12 -20 9 -26z m626 -10 c6 -36 4 -51 -12 -76 -18 -30 -23 -32 -72 -30 -46
1 -53 5 -56 23 -4 29 25 40 42 17 16 -22 55 -16 73 12 13 20 13 24 -6 40 -32
27 -26 67 8 61 10 -2 18 -20 23 -47z m968 -10 c0 -13 -29 -8 -34 5 -3 7 2 10
15 7 10 -3 19 -9 19 -12z m-210 -16 c10 -12 10 -18 0 -30 -7 -8 -18 -15 -24
-15 -15 0 -51 -38 -59 -62 -4 -10 -16 -18 -27 -18 -25 0 -28 38 -2 47 23 8 62
44 62 58 0 12 20 35 31 35 4 0 12 -7 19 -15z m-1016 -34 c14 -14 26 -32 26
-41 0 -9 5 -21 11 -27 15 -15 3 -33 -21 -33 -16 0 -19 7 -18 37 2 52 -26 72
-89 66 -26 -3 -54 -10 -61 -16 -9 -7 -17 -6 -29 5 -26 27 -7 35 76 34 70 -1
83 -4 105 -25z m614 -7 c3 -21 0 -21 -85 -17 -81 5 -91 3 -123 -19 l-35 -24
-3 -111 c-3 -111 -2 -112 25 -137 25 -24 36 -26 110 -26 45 0 85 5 88 10 10
16 45 12 52 -6 8 -23 -23 -52 -39 -36 -8 8 -45 12 -103 12 -89 0 -92 1 -123
31 l-32 31 0 122 1 121 43 28 c36 22 55 27 109 27 36 0 69 5 72 11 11 17 40 5
43 -17z m-821 -24 c3 -11 9 -17 15 -14 5 3 16 0 24 -6 10 -9 32 -11 69 -6 45
5 57 3 62 -10 10 -27 -10 -35 -67 -24 -39 7 -57 7 -68 -2 -12 -10 -18 -8 -32
10 -19 23 -37 26 -89 16 -38 -8 -44 -18 -116 -207 -41 -108 -53 -151 -49 -177
4 -30 0 -41 -33 -75 -21 -23 -43 -50 -49 -60 -14 -25 -38 -26 -42 -3 -2 12 5
21 21 27 13 5 38 27 55 49 25 31 31 46 26 69 -5 26 35 146 118 355 7 20 22 31
52 40 22 6 48 17 56 25 21 19 41 16 47 -7z m1341 -100 c16 -30 35 -54 41 -52
7 1 10 -2 6 -7 -3 -6 20 -50 52 -98 l57 -88 1 -92 c1 -79 -2 -92 -17 -96 -31
-8 -42 19 -24 57 26 56 21 114 -16 172 -18 28 -55 87 -83 132 -27 45 -58 84
-67 87 -18 6 -24 35 -12 48 13 12 33 -8 62 -63z m-528 45 c30 -4 56 -15 74
-32 l29 -26 -6 -120 -6 -120 37 7 c20 3 46 6 58 6 19 0 21 6 23 64 1 36 -3 67
-9 71 -14 8 6 45 24 45 18 0 27 -23 15 -41 -5 -8 -9 -42 -9 -76 0 -60 1 -63
24 -63 15 0 30 -10 41 -27 10 -16 27 -35 38 -44 13 -11 18 -23 14 -33 -10 -25
-41 -15 -45 14 -2 14 -11 35 -20 48 -17 21 -21 22 -125 16 l-107 -7 -20 -32
c-11 -18 -20 -40 -20 -49 0 -21 -29 -33 -40 -16 -5 8 5 29 26 57 19 25 34 49
34 54 0 5 9 9 20 9 18 0 20 7 22 83 4 166 6 152 -27 150 -22 -2 -26 0 -15 7
13 8 12 11 -5 24 -26 20 -79 20 -95 1 -14 -17 -20 -18 -39 -6 -8 5 -11 16 -7
29 6 16 13 20 39 17 18 -3 52 -7 77 -10z m-383 -65 c15 -26 23 -30 61 -30 27
0 42 -4 40 -11 -2 -6 -7 -10 -11 -10 -4 1 -25 1 -47 1 -34 0 -42 4 -55 30 -21
41 -61 41 -100 0 -22 -23 -35 -29 -59 -25 -17 2 -52 4 -78 4 -27 1 -48 6 -48
11 0 6 33 10 78 10 71 0 81 2 102 25 35 38 93 35 117 -5z m913 -45 c24 -29 6
-38 -83 -39 -76 -1 -87 1 -87 16 0 21 19 33 32 20 11 -11 88 -4 103 9 13 13
21 11 35 -6z m-1433 -11 c4 -10 -2 -23 -14 -33 -12 -9 -33 -35 -47 -59 -22
-35 -25 -46 -15 -63 9 -18 17 -20 49 -15 45 7 71 -13 50 -39 -7 -8 -19 -15
-27 -15 -7 0 -16 7 -19 15 -4 8 -19 15 -35 15 -29 0 -49 23 -49 56 0 9 14 39
31 66 17 27 29 52 25 55 -8 9 14 33 31 33 7 0 16 -7 20 -16z m203 -20 c34 -23
47 -26 89 -21 27 3 58 11 69 18 27 17 54 4 50 -23 -3 -22 -6 -23 -97 -20 -75
3 -99 8 -121 24 -22 16 -36 19 -69 13 l-41 -7 -2 -51 c-1 -62 -1 -66 7 -94 5
-17 2 -25 -10 -30 -23 -8 -49 25 -34 43 5 7 13 44 16 82 l6 71 36 9 c54 15 58
14 101 -14z m-30 -69 c29 -30 40 -35 83 -35 30 0 54 6 64 15 8 9 18 13 21 10
4 -3 0 -10 -8 -15 -10 -6 32 -10 118 -10 105 0 137 3 148 15 20 19 54 3 54
-25 0 -27 -32 -43 -54 -27 -13 10 -66 12 -200 10 -181 -2 -183 -2 -216 22 -19
14 -42 25 -51 25 -22 0 -33 16 -25 35 9 23 28 17 66 -20z m134 0 c-4 -8 -8
-15 -10 -15 -2 0 -4 7 -4 15 0 8 4 15 10 15 5 0 7 -7 4 -15z m993 -5 c35 0 72
6 83 12 16 10 23 10 36 -4 10 -10 14 -23 10 -33 -5 -14 -13 -16 -39 -10 -36 8
-104 8 -159 -1 -30 -5 -39 -2 -45 12 -8 21 26 49 41 34 5 -5 38 -10 73 -10z
m313 -1 c0 -6 -4 -7 -10 -4 -5 3 -10 11 -10 16 0 6 5 7 10 4 6 -3 10 -11 10
-16z m-1434 -54 c4 -9 -6 -27 -22 -44 -16 -15 -36 -38 -44 -49 -13 -18 -28
-21 -137 -24 -108 -4 -123 -2 -123 12 0 14 14 16 118 12 l117 -4 22 38 c21 38
23 44 23 64 0 16 40 12 46 -5z m230 -30 c4 -8 2 -21 -4 -28 -6 -7 -12 -33 -14
-57 -3 -41 -6 -45 -31 -48 -18 -2 -32 -12 -39 -28 -12 -26 -28 -32 -98 -36
-43 -3 -45 -5 -50 -37 -5 -38 -21 -49 -38 -28 -9 10 -5 22 15 50 23 33 31 37
69 37 55 0 74 8 84 36 6 15 19 24 37 26 27 3 28 5 29 58 1 30 2 58 3 63 2 13
32 7 37 -8z m1015 -32 c4 -4 9 -29 10 -54 2 -44 -1 -50 -60 -116 -63 -70 -63
-70 -134 -82 -111 -18 -111 -18 -115 3 -5 23 18 39 35 24 8 -6 37 -8 78 -3 64
6 65 7 119 69 49 55 55 67 54 105 l0 43 -37 -7 c-20 -4 -42 -12 -49 -18 -19
-15 -50 16 -34 35 12 15 118 16 133 1z m-423 -15 c19 -19 14 -46 -9 -53 -31
-10 -55 16 -40 44 13 24 31 27 49 9z m-236 -37 c37 -25 38 -28 39 -93 1 -38 3
-76 3 -85 1 -12 -6 -18 -19 -18 -15 0 -19 5 -16 20 2 11 5 45 8 76 5 55 4 57
-31 84 -31 24 -43 27 -93 23 -48 -2 -58 0 -61 14 -6 29 122 13 170 -21z m-706
-24 c2 -7 -6 -38 -20 -69 l-25 -56 -78 -7 c-74 -6 -80 -9 -96 -37 -9 -16 -17
-38 -17 -49 0 -10 -2 -19 -4 -19 -2 0 -11 -3 -20 -6 -12 -4 -16 0 -16 15 0 12
5 21 10 21 6 0 19 20 29 44 18 40 22 43 66 50 26 3 62 6 80 6 26 0 35 5 45 29
6 16 10 37 9 47 -6 35 25 60 37 31z m1052 -14 c2 -13 -2 -23 -9 -23 -14 0 -3
-279 12 -295 14 -14 11 -45 -7 -52 -8 -3 -23 1 -31 10 -13 13 -14 19 -4 31 15
18 7 254 -11 298 -14 37 -4 60 24 56 15 -2 24 -11 26 -25z m-633 -33 c9 -14
165 -13 165 1 0 18 45 5 48 -15 5 -25 -17 -37 -42 -24 -12 6 -56 9 -112 6 -68
-4 -94 -2 -98 7 -8 23 26 45 39 25z m545 -35 c10 -12 10 -21 -1 -47 -15 -37
-14 -55 7 -75 17 -17 18 -39 3 -49 -8 -4 -9 -40 -4 -115 l7 -109 -73 -82 c-41
-46 -78 -86 -83 -90 -13 -9 0 -166 15 -184 10 -12 9 -18 -4 -32 -16 -15 -18
-15 -34 0 -14 14 -14 20 -3 33 9 11 11 38 7 97 l-5 81 80 91 80 91 -7 95 c-5
78 -10 99 -28 118 -21 22 -21 24 -5 53 18 30 15 53 -9 77 -18 19 -16 39 5 51
24 14 38 13 52 -4z m-616 -48 c8 -12 7 -23 -2 -38 -10 -15 -11 -46 -6 -119 l6
-98 -43 -61 -43 -61 -70 0 c-39 0 -81 -3 -93 -6 -18 -5 -23 -2 -23 14 0 26 18
38 33 23 6 -6 41 -11 77 -11 l66 0 38 51 37 50 -6 102 c-4 56 -11 106 -16 112
-13 13 -11 39 3 53 15 15 28 11 42 -11z m201 -32 c0 -11 -9 -21 -22 -25 -12
-3 -42 -24 -67 -48 l-46 -43 0 -98 0 -99 34 -26 c33 -25 38 -26 100 -17 36 5
79 18 96 28 29 17 31 21 28 68 -3 43 -1 50 16 50 10 0 24 -8 30 -18 9 -14 7
-21 -7 -31 -10 -8 -17 -18 -16 -22 9 -50 -34 -78 -142 -94 l-79 -11 -40 33
-40 33 1 92 c2 127 5 135 54 174 24 19 46 44 50 57 7 30 50 27 50 -3z m-570
-20 c0 -17 -6 -20 -35 -17 -35 2 -35 1 -85 -93 -35 -67 -59 -101 -82 -114 -32
-20 -43 -18 -43 6 0 8 11 13 28 13 25 0 32 9 80 105 39 79 57 105 71 105 11 0
23 5 26 11 11 17 40 5 40 -16z m834 1 c13 -16 4 -46 -14 -46 -7 0 -18 7 -25
15 -10 12 -10 18 0 30 15 19 24 19 39 1z m709 -32 c2 -15 -4 -23 -20 -27 -13
-4 -24 -2 -26 3 -2 6 -19 10 -37 10 -29 0 -38 -7 -69 -54 -41 -61 -62 -72
-166 -85 -41 -5 -84 -11 -95 -13 -14 -2 -20 3 -20 15 0 16 11 19 91 22 109 3
133 14 177 80 27 39 42 51 78 61 61 16 83 13 87 -12z m-780 -22 c4 -25 -21
-40 -41 -24 -6 5 -29 12 -49 14 -35 4 -42 -1 -92 -52 -54 -55 -55 -55 -42 -91
15 -43 11 -59 -15 -59 -25 0 -35 25 -19 45 7 8 10 25 7 36 -5 17 7 36 52 82
56 58 61 61 104 59 25 -2 48 2 52 8 11 18 40 6 43 -18z m-676 -72 c-6 -11 -12
-33 -12 -50 0 -42 -36 -88 -74 -96 -19 -3 -59 -30 -99 -67 l-68 -62 14 -69 c9
-38 21 -72 28 -76 15 -10 3 -43 -14 -37 -6 2 -12 15 -12 28 -1 30 -13 85 -27
122 -10 27 -8 32 58 98 45 45 82 74 106 81 54 16 72 48 64 114 -6 56 6 74 34
48 12 -12 12 -18 2 -34z m160 -43 c-2 -50 -7 -85 -13 -82 -13 9 -11 149 3 163
15 15 14 22 10 -81z m-80 53 c-2 -14 -6 -45 -8 -70 -5 -43 -9 -48 -65 -82 -44
-28 -59 -43 -59 -60 0 -34 26 -66 58 -70 35 -4 39 -41 5 -46 -15 -2 -23 2 -23
11 0 9 -11 24 -24 34 -16 11 -27 32 -30 56 -7 42 12 66 78 102 32 18 36 24 36
60 0 23 -5 46 -11 52 -18 18 -2 45 23 41 18 -2 22 -8 20 -28z m637 11 c68 -8
78 -12 103 -43 23 -27 28 -43 28 -89 l0 -57 -85 -80 c-47 -45 -85 -87 -85 -95
0 -8 -6 -20 -14 -26 -20 -17 -52 15 -35 35 6 8 16 14 23 14 6 0 48 37 93 82
80 79 83 84 83 128 -1 74 -28 97 -128 112 l-83 11 -31 -31 c-31 -30 -31 -32
-19 -70 14 -42 9 -62 -14 -62 -19 0 -39 37 -25 45 5 3 10 20 10 38 0 21 10 41
32 64 35 36 37 36 147 24z m39 -103 c2 -16 -1 -28 -7 -28 -6 0 -11 -12 -11
-27 0 -18 -16 -47 -43 -80 -44 -55 -42 -54 -139 -57 -45 -1 -109 -54 -83 -69
20 -11 19 -53 -1 -61 -9 -4 -24 0 -34 9 -24 22 -45 19 -60 -9 -15 -28 -6 -106
13 -118 15 -9 -3 -42 -26 -46 -18 -4 -36 40 -18 46 7 2 9 21 5 55 -5 44 -3 56
16 80 12 15 30 27 41 27 10 0 19 6 19 14 0 7 20 32 45 55 42 39 48 41 107 41
l63 0 40 51 c41 52 42 58 23 96 -15 30 -3 55 24 51 17 -2 24 -11 26 -30z m388
-55 c3 -16 7 -32 8 -38 2 -5 11 -10 22 -10 24 0 31 -33 8 -42 -20 -7 -53 31
-54 63 0 29 -7 33 -43 24 -18 -4 -44 -11 -59 -14 -17 -4 -39 -23 -59 -53 l-32
-46 12 -76 c7 -42 20 -84 29 -94 11 -13 13 -20 4 -29 -17 -17 -45 -1 -39 22 3
11 -1 46 -9 78 -21 91 -21 95 51 209 2 3 124 31 142 32 7 1 15 -11 19 -26z
m-1006 -108 c10 -12 10 -18 0 -30 -7 -8 -9 -26 -6 -43 10 -45 -30 -76 -102
-78 -31 -1 -68 -4 -82 -6 -20 -2 -26 2 -28 20 -4 26 -1 26 84 10 61 -11 65
-10 89 12 27 26 31 50 13 79 -12 19 -5 51 10 51 5 0 15 -7 22 -15z m-220 -36
c0 -4 -16 -16 -35 -25 -20 -9 -38 -20 -41 -25 -2 -4 3 -39 12 -77 13 -56 22
-72 44 -86 26 -15 28 -15 36 2 9 20 11 28 13 43 1 13 43 8 48 -7 2 -6 -13 -24
-33 -39 -35 -27 -37 -27 -70 -12 -22 11 -36 26 -40 44 -3 15 -12 50 -19 77
l-14 49 37 43 c27 33 39 41 49 32 7 -6 13 -14 13 -19z m1109 -1 c-1 -18 6 -68
15 -110 20 -86 20 -84 -46 -156 -121 -131 -125 -139 -73 -126 15 4 30 17 35
30 11 29 30 31 37 4 6 -24 1 -24 84 0 45 14 69 26 69 36 0 8 8 17 18 21 25 9
161 155 162 174 0 22 26 43 45 35 23 -8 18 -45 -7 -55 -13 -5 -59 -46 -103
-90 -60 -61 -75 -81 -60 -81 17 -1 17 -3 -5 -14 -14 -8 -53 -22 -87 -31 -110
-31 -75 -39 81 -20 19 3 56 31 120 92 141 136 136 130 136 172 l0 38 -92 36
c-88 34 -96 35 -146 25 -62 -13 -72 -28 -47 -70 21 -35 7 -61 -23 -42 -9 6
-16 14 -14 18 1 3 2 26 2 50 l0 44 70 16 71 16 87 -34 c48 -18 95 -36 105 -40
16 -5 18 -13 12 -49 -11 -68 -13 -72 -78 -128 -34 -29 -86 -77 -116 -105 l-54
-52 -86 -6 c-47 -4 -91 -12 -98 -18 -14 -11 -33 -2 -33 16 0 27 -50 3 -85 -40
-24 -29 -48 -47 -74 -54 -44 -12 -64 -31 -87 -85 -11 -26 -19 -35 -22 -25 -3
10 -10 3 -18 -20 -13 -34 -13 -32 -12 43 1 42 -1 80 -4 82 -3 3 -29 0 -58 -7
-47 -11 -54 -16 -70 -52 -10 -23 -21 -49 -24 -58 -6 -22 -36 -24 -36 -3 0 7 6
18 14 22 7 4 23 27 34 49 19 38 26 43 79 55 52 13 58 17 61 42 3 23 0 27 -22
27 -14 0 -28 -4 -31 -10 -9 -15 -43 -12 -52 3 -4 8 -25 17 -45 20 -30 4 -38 2
-38 -9 0 -12 -5 -11 -26 5 -15 12 -36 21 -48 21 -11 0 -60 11 -108 23 -48 13
-101 22 -118 19 -17 -2 -30 0 -30 6 0 6 -7 17 -15 26 -13 13 -11 15 16 21 20
5 36 2 47 -8 22 -19 131 -31 165 -18 15 6 27 19 29 33 3 20 10 23 49 26 44 3
48 1 82 -42 l37 -45 58 6 c31 3 65 12 74 21 21 18 48 9 48 -17 0 -22 -27 -36
-45 -21 -7 5 -39 7 -77 3 l-65 -6 -33 42 c-29 35 -39 41 -72 41 -27 0 -38 -4
-38 -15 0 -27 -60 -55 -105 -50 l-40 5 40 -15 c52 -21 203 -44 285 -44 36 0
107 7 158 15 l92 16 80 89 c44 49 80 97 80 107 0 33 -34 157 -47 170 -22 23
-14 42 19 42 15 0 18 -7 17 -32z m-813 11 c7 -12 105 -7 151 7 16 4 25 1 29
-11 11 -27 -11 -41 -40 -25 -19 10 -41 11 -96 3 -51 -7 -73 -6 -80 2 -6 7 -5
16 2 23 15 15 25 15 34 1z m680 -63 c1 -26 7 -68 14 -92 l13 -44 -42 -45 c-22
-24 -41 -54 -41 -65 0 -22 -35 -29 -43 -7 -6 17 3 37 17 37 7 0 29 17 50 39
l37 38 -10 58 c-6 32 -18 69 -27 82 -12 19 -13 27 -3 39 20 25 34 10 35 -40z
m-305 17 c13 -106 -6 -147 -73 -156 -23 -3 -44 -11 -48 -18 -12 -18 -40 -3
-40 21 0 19 4 20 50 14 45 -6 54 -4 75 16 30 28 31 45 5 67 -20 17 -26 44 -13
56 9 9 43 9 44 0z m697 -61 c2 -16 -3 -25 -20 -31 -13 -5 -51 -42 -83 -83 -32
-40 -62 -75 -66 -78 -4 -3 -13 -18 -18 -34 -12 -29 -34 -31 -39 -2 -2 10 4 20
15 23 27 7 153 170 153 198 0 40 53 47 58 7z m-1015 -49 c16 -8 28 -22 28 -36
3 -41 5 -52 14 -71 6 -14 3 -23 -11 -33 -16 -12 -20 -11 -31 3 -10 13 -9 21 2
38 21 30 18 63 -7 80 -27 19 -100 21 -128 4 -23 -15 -46 1 -37 25 7 19 128 12
170 -10z m-55 -92 c-2 -11 -23 -14 -91 -14 -48 0 -90 3 -93 6 -16 15 12 22 95
22 74 0 91 -2 89 -14z m-199 -37 c-6 -8 -17 -14 -24 -14 -8 0 -15 -5 -17 -11
-2 -6 -25 -13 -51 -16 -26 -3 -50 -10 -53 -14 -8 -14 -24 -11 -24 5 0 9 18 15
53 19 42 5 56 12 76 37 19 24 27 28 37 19 11 -9 11 -15 3 -25z m101 -4 c0 -20
-87 -90 -125 -101 -22 -6 -45 -15 -52 -21 -13 -10 -36 -2 -29 11 3 4 30 13 61
20 50 11 61 18 88 57 28 40 57 58 57 34z m1430 -35 c10 -13 9 -15 -9 -15 -12
0 -21 6 -21 15 0 8 4 15 9 15 5 0 14 -7 21 -15z m-1400 -4 c0 -5 -15 -32 -32
-60 -27 -41 -39 -52 -68 -56 -19 -3 -43 -11 -54 -16 -12 -7 -22 -7 -28 -1 -15
15 -1 31 22 25 11 -3 35 -2 53 1 28 5 38 14 53 48 10 23 20 46 20 50 3 17 4
18 19 18 8 0 15 -4 15 -9z m105 -61 c3 -5 26 -10 49 -10 59 0 76 -26 76 -114
0 -56 -3 -67 -21 -76 -11 -7 -23 -9 -26 -7 -2 3 5 10 16 17 30 15 30 106 1
143 -21 26 -30 27 -102 11 -23 -5 -28 -3 -28 13 0 30 22 45 35 23z m1375 -25
c0 -10 -9 -14 -29 -12 -22 1 -27 5 -19 15 14 17 48 15 48 -3z m-1334 -57 c4
-6 -2 -19 -14 -29 -12 -9 -22 -22 -22 -28 0 -11 -23 -23 -70 -35 -14 -3 -7 3
16 13 40 18 60 44 48 62 -7 12 4 29 21 29 8 0 17 -5 21 -12z m830 -20 c5 -7 3
-8 -6 -3 -7 4 -16 2 -21 -6 -4 -7 -11 -10 -16 -6 -4 5 -1 12 7 17 20 13 27 12
36 -2z m-78 -15 c-10 -2 -28 -2 -40 0 -13 2 -5 4 17 4 22 1 32 -1 23 -4z
m-102 -41 c-17 -16 -18 -16 -5 5 7 12 15 20 18 17 3 -2 -3 -12 -13 -22z m-804
-44 c-8 -8 -9 -4 -5 13 4 13 8 18 11 10 2 -7 -1 -18 -6 -23z m728 -13 c0 -2
-9 -3 -19 -2 -11 0 -18 5 -15 9 4 6 34 0 34 -7z m871 -455 c-13 -11 -32 -20
-44 -20 -26 0 -15 12 26 27 44 16 45 15 18 -7z m-115 -45 c-23 -17 -36 -19
-36 -6 0 5 8 12 18 14 32 9 37 6 18 -8z m-106 -35 c-20 -13 -33 -13 -25 0 3 6
14 10 23 10 15 0 15 -2 2 -10z m-103 -26 c-3 -3 -12 -4 -19 -1 -8 3 -5 6 6 6
11 1 17 -2 13 -5z"/>
<path d="M3880 3180 c0 -5 7 -10 15 -10 8 0 15 5 15 10 0 6 -7 10 -15 10 -8 0
-15 -4 -15 -10z"/>
<path d="M2270 3099 c0 -5 5 -7 10 -4 6 3 10 8 10 11 0 2 -4 4 -10 4 -5 0 -10
-5 -10 -11z"/>
<path d="M2365 2960 c3 -5 8 -10 11 -10 2 0 4 5 4 10 0 6 -5 10 -11 10 -5 0
-7 -4 -4 -10z"/>
<path d="M3888 3073 c7 -3 16 -2 19 1 4 3 -2 6 -13 5 -11 0 -14 -3 -6 -6z"/>
<path d="M2970 2540 c0 -5 5 -10 10 -10 6 0 10 5 10 10 0 6 -4 10 -10 10 -5 0
-10 -4 -10 -10z"/>
<path d="M2135 2060 c3 -5 8 -10 11 -10 2 0 4 5 4 10 0 6 -5 10 -11 10 -5 0
-7 -4 -4 -10z"/>
<path d="M2370 1970 c0 -5 5 -10 10 -10 6 0 10 5 10 10 0 6 -4 10 -10 10 -5 0
-10 -4 -10 -10z"/>
<path d="M2830 1800 c0 -5 5 -10 10 -10 6 0 10 5 10 10 0 6 -4 10 -10 10 -5 0
-10 -4 -10 -10z"/>
<path d="M2743 1722 c-8 -5 -9 -13 -3 -22 7 -12 12 -12 22 -2 14 14 -1 35 -19
24z"/>
<path d="M2745 1591 c-3 -5 -1 -12 5 -16 12 -7 30 2 30 16 0 12 -27 12 -35 0z"/>
<path d="M2620 970 c0 -5 5 -10 10 -10 6 0 10 5 10 10 0 6 -4 10 -10 10 -5 0
-10 -4 -10 -10z"/>
<path d="M2130 1670 c0 -5 5 -10 10 -10 6 0 10 5 10 10 0 6 -4 10 -10 10 -5 0
-10 -4 -10 -10z"/>
<path d="M2500 1420 c0 -5 5 -10 11 -10 5 0 7 5 4 10 -3 6 -8 10 -11 10 -2 0
-4 -4 -4 -10z"/>
<path d="M2600 1620 c0 -5 5 -10 11 -10 5 0 7 5 4 10 -3 6 -8 10 -11 10 -2 0
-4 -4 -4 -10z"/>
<path d="M2600 1430 c0 -5 5 -10 10 -10 6 0 10 5 10 10 0 6 -4 10 -10 10 -5 0
-10 -4 -10 -10z"/>
<path d="M2330 1141 c0 -6 5 -13 10 -16 6 -3 10 1 10 9 0 9 -4 16 -10 16 -5 0
-10 -4 -10 -9z"/>
<path d="M2240 970 c0 -5 5 -10 10 -10 6 0 10 5 10 10 0 6 -4 10 -10 10 -5 0
-10 -4 -10 -10z"/>
<path d="M3235 1110 c-3 -5 -1 -10 4 -10 6 0 11 5 11 10 0 6 -2 10 -4 10 -3 0
-8 -4 -11 -10z"/>
<path d="M2625 880 c3 -5 8 -10 11 -10 2 0 4 5 4 10 0 6 -5 10 -11 10 -5 0 -7
-4 -4 -10z"/>
<path d="M2687 813 c-87 -4 -106 -19 -66 -53 24 -20 24 -20 4 -35 -12 -9 -20
-29 -21 -50 -3 -51 17 -45 50 15 23 41 33 50 62 50 24 0 69 32 84 61 9 16 7
19 -12 17 -13 -1 -58 -4 -101 -5z"/>
<path d="M2500 800 c0 -5 5 -10 10 -10 6 0 10 5 10 10 0 6 -4 10 -10 10 -5 0
-10 -4 -10 -10z"/>
<path d="M2440 1170 c0 -5 5 -10 10 -10 6 0 10 5 10 10 0 6 -4 10 -10 10 -5 0
-10 -4 -10 -10z"/>
<path d="M3130 1130 c0 -5 5 -10 10 -10 6 0 10 5 10 10 0 6 -4 10 -10 10 -5 0
-10 -4 -10 -10z"/>
<path d="M2165 960 c3 -5 8 -10 11 -10 2 0 4 5 4 10 0 6 -5 10 -11 10 -5 0 -7
-4 -4 -10z"/>
<path d="M1790 3954 c0 -8 5 -12 10 -9 6 3 10 10 10 16 0 5 -4 9 -10 9 -5 0
-10 -7 -10 -16z"/>
<path d="M1880 3895 c0 -8 2 -15 4 -15 2 0 6 7 10 15 3 8 1 15 -4 15 -6 0 -10
-7 -10 -15z"/>
<path d="M1927 3823 c-12 -11 -8 -23 8 -23 8 0 15 7 15 15 0 16 -12 20 -23 8z"/>
<path d="M2041 3774 c0 -11 3 -14 6 -6 3 7 2 16 -1 19 -3 4 -6 -2 -5 -13z"/>
<path d="M2070 3770 c0 -5 5 -10 10 -10 6 0 10 5 10 10 0 6 -4 10 -10 10 -5 0
-10 -4 -10 -10z"/>
<path d="M2300 3736 c0 -2 7 -7 16 -10 8 -3 12 -2 9 4 -6 10 -25 14 -25 6z"/>
<path d="M2205 3710 c-3 -5 3 -10 15 -10 12 0 18 5 15 10 -3 6 -10 10 -15 10
-5 0 -12 -4 -15 -10z"/>
<path d="M2368 3703 c7 -3 16 -2 19 1 4 3 -2 6 -13 5 -11 0 -14 -3 -6 -6z"/>
<path d="M2400 3669 c0 -5 5 -7 10 -4 6 3 10 8 10 11 0 2 -4 4 -10 4 -5 0 -10
-5 -10 -11z"/>
<path d="M2450 3661 c0 -5 5 -13 10 -16 6 -3 10 -2 10 4 0 5 -4 13 -10 16 -5
3 -10 2 -10 -4z"/>
<path d="M2590 3602 c0 -5 11 -14 25 -20 18 -9 26 -8 31 1 4 7 3 9 -1 4 -5 -4
-19 0 -32 8 -13 9 -23 12 -23 7z"/>
<path d="M2730 3435 c0 -8 8 -15 18 -14 10 0 12 3 4 6 -6 2 -10 9 -6 14 3 5 0
9 -5 9 -6 0 -11 -7 -11 -15z"/>
<path d="M2330 3429 c0 -5 5 -7 10 -4 6 3 10 8 10 11 0 2 -4 4 -10 4 -5 0 -10
-5 -10 -11z"/>
<path d="M3384 1690 c2 -16 20 -14 24 2 3 10 2 10 -6 -1 -7 -9 -11 -10 -15 -2
-4 7 -5 8 -3 1z"/>
<path d="M3455 1519 c-4 -6 -5 -12 -2 -15 2 -3 7 2 10 11 7 17 1 20 -8 4z"/>
<path d="M3430 1455 c0 -8 2 -15 4 -15 2 0 6 7 10 15 3 8 1 15 -4 15 -6 0 -10
-7 -10 -15z"/>
<path d="M3500 1167 c0 -28 6 -32 28 -19 9 7 8 13 -8 27 -20 18 -20 18 -20 -8z"/>
<path d="M3446 1108 c3 -4 9 -8 15 -8 5 0 9 4 9 8 0 5 -7 9 -15 9 -8 0 -12 -4
-9 -9z"/>
<path d="M3503 1080 c6 -16 15 -26 19 -22 11 11 -2 52 -17 52 -11 0 -11 -6 -2
-30z"/>
<path d="M3500 1019 c0 -5 5 -7 10 -4 6 3 10 8 10 11 0 2 -4 4 -10 4 -5 0 -10
-5 -10 -11z"/>
<path d="M3495 992 c-10 -11 -4 -32 9 -32 11 0 26 20 26 34 0 5 -30 3 -35 -2z"/>
<path d="M3551 974 c0 -11 3 -14 6 -6 3 7 2 16 -1 19 -3 4 -6 -2 -5 -13z"/>
</g>
</svg>
